<?xml version="1.0" encoding="UTF-8" ?>
<!DOCTYPE svg PUBLIC "-//W3C//DTD SVG 1.1//EN" "http://www.w3.org/Graphics/SVG/1.1/DTD/svg11.dtd">
<svg width="452pt" height="281pt" viewBox="0 0 452 281" id="logo_svg" version="1.1" xmlns="http://www.w3.org/2000/svg">
  <g>
    <path class="logo" fill="#37474f" d="M 270.66 9.47 C 296.67 6.40 322.89 8.11 349.00 7.64 C 363.80 7.94 378.96 8.26 393.14 12.96 C 406.31 17.59 418.72 26.37 424.78 39.29 C 431.41 53.69 430.65 70.65 425.40 85.36 C 419.70 100.77 406.29 111.87 391.93 118.98 C 384.97 122.29 377.93 128.08 377.49 136.36 C 377.45 144.83 381.96 152.50 386.78 159.16 C 397.73 173.76 411.46 186.23 426.76 196.15 C 432.33 199.92 438.79 202.41 443.65 207.21 C 435.53 208.67 427.49 206.32 419.65 204.47 C 403.59 200.40 388.66 191.82 377.42 179.61 C 365.50 167.27 355.92 152.97 345.75 139.23 C 339.47 130.48 330.57 124.14 321.70 118.26 C 307.07 108.89 290.25 103.83 273.63 99.30 C 262.04 96.38 250.18 94.62 238.64 91.49 C 233.46 90.01 227.73 87.82 225.15 82.71 C 223.01 78.78 225.43 74.18 228.57 71.61 C 234.53 66.65 242.59 65.58 250.04 64.82 C 270.13 63.71 290.17 70.27 306.95 81.10 C 316.82 87.78 324.37 99.35 337.17 100.53 C 347.45 100.84 357.90 101.07 368.01 98.88 C 379.90 96.41 390.53 86.66 392.33 74.39 C 393.09 68.75 393.21 62.88 391.63 57.36 C 389.08 48.76 381.38 42.36 372.86 40.11 C 364.50 37.46 355.66 38.79 347.07 37.94 C 333.61 36.76 319.96 35.96 306.97 31.97 C 284.96 25.52 261.80 23.08 238.93 24.92 C 232.11 25.52 225.47 27.45 218.60 27.66 C 220.15 25.82 221.72 23.91 223.94 22.84 C 238.37 15.18 254.53 11.44 270.66 9.47 Z">
    </path>
    <path class="logo" fill="#37474f" d="M 160.45 87.53 L 160.91 87.05 C 161.31 87.15 162.11 87.35 162.50 87.45 C 163.98 92.91 163.74 98.75 165.92 104.04 C 169.85 114.84 178.89 122.71 188.31 128.76 C 203.05 137.89 219.86 143.17 236.83 146.26 C 244.96 147.93 253.18 149.30 261.11 151.80 C 266.35 153.54 271.89 156.66 273.87 162.14 C 275.12 165.39 273.50 168.89 271.23 171.24 C 267.33 175.50 261.50 177.13 255.99 178.04 C 237.39 180.57 217.98 177.52 201.31 168.79 C 188.66 162.99 177.58 154.04 168.84 143.26 C 160.60 133.32 153.93 121.17 153.72 107.99 C 154.22 100.83 155.94 93.27 160.45 87.53 Z">
    </path>
    <path class="logo" fill="#37474f" d="M 51.87 163.78 C 67.59 158.54 84.97 159.83 100.35 165.60 C 116.34 171.61 130.48 181.55 143.59 192.33 C 152.79 199.79 161.20 208.19 170.72 215.25 C 187.27 227.72 206.17 237.60 226.67 241.46 C 254.28 247.03 283.67 241.21 307.67 226.66 C 311.14 224.50 314.72 222.53 318.48 220.92 C 317.25 223.73 315.91 226.52 313.93 228.89 C 297.37 248.77 274.54 263.96 249.02 269.20 C 221.17 275.35 191.97 269.25 166.30 257.80 C 131.20 242.06 103.41 214.35 69.53 196.50 C 56.99 189.94 43.57 184.94 29.60 182.52 C 23.22 181.16 16.52 181.59 10.37 179.20 C 15.16 175.63 21.12 174.54 26.61 172.51 C 35.02 169.56 43.43 166.62 51.87 163.78 Z">
    </path>
  </g>
</svg>
